<mxfile host="Electron" agent="Mozilla/5.0 (Windows NT 10.0; Win64; x64) AppleWebKit/537.36 (KHTML, like Gecko) draw.io/26.2.15 Chrome/134.0.6998.205 Electron/35.2.1 Safari/537.36" version="26.2.15">
  <diagram name="PÃ¡gina-1" id="ys5kx7C9Na0HVoatmRj8">
    <mxGraphModel dx="2084" dy="2421" grid="1" gridSize="10" guides="1" tooltips="1" connect="1" arrows="1" fold="1" page="1" pageScale="1" pageWidth="827" pageHeight="1169" math="0" shadow="0">
      <root>
        <mxCell id="0" />
        <mxCell id="1" parent="0" />
        <mxCell id="qrelYEuBNLS3ZB2BmsAT-2" value="&lt;div&gt;&lt;br&gt;&lt;/div&gt;&lt;div&gt;&lt;br&gt;&lt;/div&gt;&lt;div&gt;&lt;br&gt;&lt;/div&gt;+ Name&lt;div&gt;+ Items&lt;/div&gt;&lt;div&gt;+ Attack value&lt;/div&gt;&lt;div&gt;+ Health&lt;/div&gt;&lt;div&gt;+ Defense&lt;/div&gt;" style="rounded=0;whiteSpace=wrap;html=1;" parent="1" vertex="1">
          <mxGeometry x="80" y="201" width="240" height="190" as="geometry" />
        </mxCell>
        <mxCell id="qrelYEuBNLS3ZB2BmsAT-4" value="Wizzard" style="rounded=0;whiteSpace=wrap;html=1;" parent="1" vertex="1">
          <mxGeometry x="80" y="200" width="240" height="60" as="geometry" />
        </mxCell>
        <mxCell id="qrelYEuBNLS3ZB2BmsAT-7" value="&lt;br&gt;&lt;div&gt;&lt;div&gt;&lt;br&gt;&lt;/div&gt;&lt;div&gt;+ Name&lt;/div&gt;&lt;div&gt;+ Attack value&lt;br&gt;+ Defense&lt;br&gt;&lt;div&gt;+ Health&lt;br&gt;+ Items&lt;/div&gt;&lt;/div&gt;&lt;/div&gt;" style="rounded=0;whiteSpace=wrap;html=1;" parent="1" vertex="1">
          <mxGeometry x="460" y="201" width="240" height="190" as="geometry" />
        </mxCell>
        <mxCell id="qrelYEuBNLS3ZB2BmsAT-8" value="Knight" style="rounded=0;whiteSpace=wrap;html=1;" parent="1" vertex="1">
          <mxGeometry x="460" y="200" width="240" height="60" as="geometry" />
        </mxCell>
        <mxCell id="qrelYEuBNLS3ZB2BmsAT-9" value="&lt;br&gt;&lt;div style=&quot;forced-color-adjust: none; box-shadow: none !important; color: rgb(255, 255, 255); font-family: Helvetica; font-size: 12px; font-style: normal; font-variant-ligatures: normal; font-variant-caps: normal; font-weight: 400; letter-spacing: normal; orphans: 2; text-align: center; text-indent: 0px; text-transform: none; widows: 2; word-spacing: 0px; -webkit-text-stroke-width: 0px; white-space: normal; background-color: rgb(27, 29, 30); text-decoration-thickness: initial; text-decoration-style: initial; text-decoration-color: initial;&quot;&gt;&lt;br class=&quot;Apple-interchange-newline&quot;&gt;&lt;br style=&quot;forced-color-adjust: none; box-shadow: none !important;&quot;&gt;&lt;/div&gt;&lt;div style=&quot;forced-color-adjust: none; box-shadow: none !important; color: rgb(255, 255, 255); font-family: Helvetica; font-size: 12px; font-style: normal; font-variant-ligatures: normal; font-variant-caps: normal; font-weight: 400; letter-spacing: normal; orphans: 2; text-align: center; text-indent: 0px; text-transform: none; widows: 2; word-spacing: 0px; -webkit-text-stroke-width: 0px; white-space: normal; background-color: rgb(27, 29, 30); text-decoration-thickness: initial; text-decoration-style: initial; text-decoration-color: initial;&quot;&gt;&lt;br style=&quot;forced-color-adjust: none; box-shadow: none !important;&quot;&gt;&lt;/div&gt;&lt;div style=&quot;forced-color-adjust: none; box-shadow: none !important; color: rgb(255, 255, 255); font-family: Helvetica; font-size: 12px; font-style: normal; font-variant-ligatures: normal; font-variant-caps: normal; font-weight: 400; letter-spacing: normal; orphans: 2; text-align: center; text-indent: 0px; text-transform: none; widows: 2; word-spacing: 0px; -webkit-text-stroke-width: 0px; white-space: normal; background-color: rgb(27, 29, 30); text-decoration-thickness: initial; text-decoration-style: initial; text-decoration-color: initial;&quot;&gt;+ Name&lt;/div&gt;&lt;div style=&quot;forced-color-adjust: none; box-shadow: none !important; color: rgb(255, 255, 255); font-family: Helvetica; font-size: 12px; font-style: normal; font-variant-ligatures: normal; font-variant-caps: normal; font-weight: 400; letter-spacing: normal; orphans: 2; text-align: center; text-indent: 0px; text-transform: none; widows: 2; word-spacing: 0px; -webkit-text-stroke-width: 0px; white-space: normal; background-color: rgb(27, 29, 30); text-decoration-thickness: initial; text-decoration-style: initial; text-decoration-color: initial;&quot;&gt;+ Attack value&lt;br style=&quot;forced-color-adjust: none; box-shadow: none !important;&quot;&gt;+ Defense&lt;br style=&quot;forced-color-adjust: none; box-shadow: none !important;&quot;&gt;&lt;div style=&quot;forced-color-adjust: none; box-shadow: none !important;&quot;&gt;+ Health&lt;br style=&quot;forced-color-adjust: none; box-shadow: none !important;&quot;&gt;+ Items&lt;/div&gt;&lt;/div&gt;&lt;div&gt;&lt;br/&gt;&lt;/div&gt;" style="rounded=0;whiteSpace=wrap;html=1;" parent="1" vertex="1">
          <mxGeometry x="800" y="200" width="240" height="190" as="geometry" />
        </mxCell>
        <mxCell id="qrelYEuBNLS3ZB2BmsAT-10" value="Dwarf" style="rounded=0;whiteSpace=wrap;html=1;" parent="1" vertex="1">
          <mxGeometry x="800" y="200" width="240" height="60" as="geometry" />
        </mxCell>
        <mxCell id="qrelYEuBNLS3ZB2BmsAT-12" value="&lt;br&gt;&lt;div style=&quot;forced-color-adjust: none; box-shadow: none !important; color: rgb(255, 255, 255); font-family: Helvetica; font-size: 12px; font-style: normal; font-variant-ligatures: normal; font-variant-caps: normal; font-weight: 400; letter-spacing: normal; orphans: 2; text-align: center; text-indent: 0px; text-transform: none; widows: 2; word-spacing: 0px; -webkit-text-stroke-width: 0px; white-space: normal; background-color: rgb(27, 29, 30); text-decoration-thickness: initial; text-decoration-style: initial; text-decoration-color: initial;&quot;&gt;&lt;br class=&quot;Apple-interchange-newline&quot;&gt;&lt;br style=&quot;forced-color-adjust: none; box-shadow: none !important;&quot;&gt;&lt;/div&gt;&lt;div style=&quot;forced-color-adjust: none; box-shadow: none !important; color: rgb(255, 255, 255); font-family: Helvetica; font-size: 12px; font-style: normal; font-variant-ligatures: normal; font-variant-caps: normal; font-weight: 400; letter-spacing: normal; orphans: 2; text-align: center; text-indent: 0px; text-transform: none; widows: 2; word-spacing: 0px; -webkit-text-stroke-width: 0px; white-space: normal; background-color: rgb(27, 29, 30); text-decoration-thickness: initial; text-decoration-style: initial; text-decoration-color: initial;&quot;&gt;&lt;br style=&quot;forced-color-adjust: none; box-shadow: none !important;&quot;&gt;&lt;/div&gt;&lt;div style=&quot;forced-color-adjust: none; box-shadow: none !important; color: rgb(255, 255, 255); font-family: Helvetica; font-size: 12px; font-style: normal; font-variant-ligatures: normal; font-variant-caps: normal; font-weight: 400; letter-spacing: normal; orphans: 2; text-align: center; text-indent: 0px; text-transform: none; widows: 2; word-spacing: 0px; -webkit-text-stroke-width: 0px; white-space: normal; background-color: rgb(27, 29, 30); text-decoration-thickness: initial; text-decoration-style: initial; text-decoration-color: initial;&quot;&gt;+ Name&lt;/div&gt;&lt;div style=&quot;forced-color-adjust: none; box-shadow: none !important; color: rgb(255, 255, 255); font-family: Helvetica; font-size: 12px; font-style: normal; font-variant-ligatures: normal; font-variant-caps: normal; font-weight: 400; letter-spacing: normal; orphans: 2; text-align: center; text-indent: 0px; text-transform: none; widows: 2; word-spacing: 0px; -webkit-text-stroke-width: 0px; white-space: normal; background-color: rgb(27, 29, 30); text-decoration-thickness: initial; text-decoration-style: initial; text-decoration-color: initial;&quot;&gt;+ Attack value&lt;br style=&quot;forced-color-adjust: none; box-shadow: none !important;&quot;&gt;+ Defense&lt;br style=&quot;forced-color-adjust: none; box-shadow: none !important;&quot;&gt;&lt;div style=&quot;forced-color-adjust: none; box-shadow: none !important;&quot;&gt;+ Health&lt;br style=&quot;forced-color-adjust: none; box-shadow: none !important;&quot;&gt;+ Items&lt;/div&gt;&lt;/div&gt;&lt;div&gt;&lt;br/&gt;&lt;/div&gt;" style="rounded=0;whiteSpace=wrap;html=1;" parent="1" vertex="1">
          <mxGeometry x="1150" y="200" width="240" height="190" as="geometry" />
        </mxCell>
        <mxCell id="qrelYEuBNLS3ZB2BmsAT-13" value="Archer" style="rounded=0;whiteSpace=wrap;html=1;" parent="1" vertex="1">
          <mxGeometry x="1150" y="200" width="240" height="60" as="geometry" />
        </mxCell>
        <mxCell id="qrelYEuBNLS3ZB2BmsAT-45" style="edgeStyle=orthogonalEdgeStyle;rounded=0;orthogonalLoop=1;jettySize=auto;html=1;exitX=0;exitY=0.5;exitDx=0;exitDy=0;" parent="1" source="qrelYEuBNLS3ZB2BmsAT-44" target="qrelYEuBNLS3ZB2BmsAT-4" edge="1">
          <mxGeometry relative="1" as="geometry" />
        </mxCell>
        <mxCell id="qrelYEuBNLS3ZB2BmsAT-46" style="edgeStyle=orthogonalEdgeStyle;rounded=0;orthogonalLoop=1;jettySize=auto;html=1;exitX=0.25;exitY=1;exitDx=0;exitDy=0;" parent="1" source="qrelYEuBNLS3ZB2BmsAT-44" target="qrelYEuBNLS3ZB2BmsAT-8" edge="1">
          <mxGeometry relative="1" as="geometry" />
        </mxCell>
        <mxCell id="qrelYEuBNLS3ZB2BmsAT-47" style="edgeStyle=orthogonalEdgeStyle;rounded=0;orthogonalLoop=1;jettySize=auto;html=1;exitX=0.75;exitY=1;exitDx=0;exitDy=0;entryX=0.5;entryY=0;entryDx=0;entryDy=0;" parent="1" source="qrelYEuBNLS3ZB2BmsAT-44" target="qrelYEuBNLS3ZB2BmsAT-10" edge="1">
          <mxGeometry relative="1" as="geometry" />
        </mxCell>
        <mxCell id="1y-bs9I6kmTwvEBy94kH-2" style="edgeStyle=orthogonalEdgeStyle;rounded=0;orthogonalLoop=1;jettySize=auto;html=1;exitX=0.5;exitY=1;exitDx=0;exitDy=0;" edge="1" parent="1" source="qrelYEuBNLS3ZB2BmsAT-44" target="qrelYEuBNLS3ZB2BmsAT-50">
          <mxGeometry relative="1" as="geometry" />
        </mxCell>
        <mxCell id="qrelYEuBNLS3ZB2BmsAT-44" value="Character (abstract)" style="rounded=0;whiteSpace=wrap;html=1;" parent="1" vertex="1">
          <mxGeometry x="590" y="-80" width="270" height="170" as="geometry" />
        </mxCell>
        <mxCell id="qrelYEuBNLS3ZB2BmsAT-48" style="edgeStyle=orthogonalEdgeStyle;rounded=0;orthogonalLoop=1;jettySize=auto;html=1;exitX=1;exitY=0.5;exitDx=0;exitDy=0;entryX=0.461;entryY=0.026;entryDx=0;entryDy=0;entryPerimeter=0;" parent="1" source="qrelYEuBNLS3ZB2BmsAT-44" target="qrelYEuBNLS3ZB2BmsAT-13" edge="1">
          <mxGeometry relative="1" as="geometry" />
        </mxCell>
        <mxCell id="qrelYEuBNLS3ZB2BmsAT-54" style="edgeStyle=orthogonalEdgeStyle;rounded=0;orthogonalLoop=1;jettySize=auto;html=1;exitX=1;exitY=0.5;exitDx=0;exitDy=0;" parent="1" source="qrelYEuBNLS3ZB2BmsAT-50" target="qrelYEuBNLS3ZB2BmsAT-53" edge="1">
          <mxGeometry relative="1" as="geometry" />
        </mxCell>
        <mxCell id="qrelYEuBNLS3ZB2BmsAT-55" style="edgeStyle=orthogonalEdgeStyle;rounded=0;orthogonalLoop=1;jettySize=auto;html=1;exitX=0;exitY=0.5;exitDx=0;exitDy=0;" parent="1" source="qrelYEuBNLS3ZB2BmsAT-50" target="qrelYEuBNLS3ZB2BmsAT-52" edge="1">
          <mxGeometry relative="1" as="geometry" />
        </mxCell>
        <mxCell id="qrelYEuBNLS3ZB2BmsAT-50" value="Items (abstract)" style="rounded=0;whiteSpace=wrap;html=1;" parent="1" vertex="1">
          <mxGeometry x="605" y="510" width="240" height="190" as="geometry" />
        </mxCell>
        <mxCell id="qrelYEuBNLS3ZB2BmsAT-52" value="&lt;div&gt;&lt;br&gt;&lt;/div&gt;&lt;div&gt;&lt;br&gt;&lt;/div&gt;&lt;div&gt;&lt;span style=&quot;background-color: transparent; color: light-dark(rgb(0, 0, 0), rgb(255, 255, 255));&quot;&gt;Sword&lt;/span&gt;&lt;/div&gt;&lt;div&gt;Axe&lt;/div&gt;&lt;div&gt;Bow&lt;/div&gt;&lt;div&gt;Staff&lt;/div&gt;&lt;div&gt;&lt;br&gt;&lt;/div&gt;" style="rounded=0;whiteSpace=wrap;html=1;" parent="1" vertex="1">
          <mxGeometry x="240" y="760" width="240" height="190" as="geometry" />
        </mxCell>
        <mxCell id="qrelYEuBNLS3ZB2BmsAT-53" value="Armor&lt;div&gt;Shield&lt;/div&gt;&lt;div&gt;Helmet&lt;/div&gt;&lt;div&gt;&lt;br&gt;&lt;/div&gt;" style="rounded=0;whiteSpace=wrap;html=1;" parent="1" vertex="1">
          <mxGeometry x="960" y="760" width="240" height="190" as="geometry" />
        </mxCell>
        <mxCell id="qrelYEuBNLS3ZB2BmsAT-56" value="Attack" style="rounded=0;whiteSpace=wrap;html=1;" parent="1" vertex="1">
          <mxGeometry x="240" y="760" width="240" height="60" as="geometry" />
        </mxCell>
        <mxCell id="qrelYEuBNLS3ZB2BmsAT-57" value="Deffense" style="rounded=0;whiteSpace=wrap;html=1;" parent="1" vertex="1">
          <mxGeometry x="960" y="760" width="240" height="60" as="geometry" />
        </mxCell>
        <mxCell id="qrelYEuBNLS3ZB2BmsAT-58" value="Spell book&lt;div&gt;&lt;br&gt;&lt;/div&gt;&lt;div&gt;Spells: List&amp;lt;Spells&amp;gt;&lt;/div&gt;&lt;div&gt;&lt;br&gt;&lt;/div&gt;&lt;div&gt;Add.Spell()&lt;/div&gt;&lt;div&gt;Cast.Spell()&lt;/div&gt;&lt;div&gt;&lt;br&gt;&lt;/div&gt;" style="rounded=0;whiteSpace=wrap;html=1;" parent="1" vertex="1">
          <mxGeometry x="620" y="1010" width="240" height="190" as="geometry" />
        </mxCell>
        <mxCell id="1y-bs9I6kmTwvEBy94kH-1" value="" style="endArrow=classic;html=1;rounded=0;entryX=0.42;entryY=0.009;entryDx=0;entryDy=0;entryPerimeter=0;" edge="1" parent="1" target="qrelYEuBNLS3ZB2BmsAT-58">
          <mxGeometry width="50" height="50" relative="1" as="geometry">
            <mxPoint x="724" y="700" as="sourcePoint" />
            <mxPoint x="724" y="760" as="targetPoint" />
          </mxGeometry>
        </mxCell>
      </root>
    </mxGraphModel>
  </diagram>
</mxfile>
